<?xml version="1.0" encoding="utf-8"?>
<!-- Generator: Adobe Illustrator 29.4.0, SVG Export Plug-In . SVG Version: 9.03 Build 0)  -->
<svg version="1.0" id="katman_1" xmlns="http://www.w3.org/2000/svg" xmlns:xlink="http://www.w3.org/1999/xlink" x="0px" y="0px"
	 viewBox="0 0 512 512" style="enable-background:new 0 0 512 512;" xml:space="preserve">
<style type="text/css">
	.st0{fill:#F0CE49;}
	.st1{fill:#BF9A26;}
	.st2{fill:#43B05B;}
	.st3{fill:#248436;}
	.st4{fill:#48A0DC;}
</style>
<path class="st0" d="M91.5,4.9C39.6,4.9,4.9,50,4.9,99.3c0,29.4,7.8,45.9,20.8,73.6c26,57.1,65.8,118.6,65.8,118.6
	s39.8-61.5,65.8-118.6c13-28.6,20.8-44.2,20.8-73.6C178.1,50,143.5,4.9,91.5,4.9"/>
<path class="st1" d="M134.8,91.5c0-24.2-19-43.3-43.3-43.3s-43.3,19-43.3,43.3s19,43.3,43.3,43.3S134.8,115.8,134.8,91.5"/>
<path class="st2" d="M420.5,178.1c-51.9,0-86.6,45-86.6,94.4c0,29.4,7.8,45.9,20.8,73.6c26,57.1,65.8,118.6,65.8,118.6
	s39.8-61.5,65.8-118.6c13-28.6,20.8-44.2,20.8-73.6C507.1,223.1,472.4,178.1,420.5,178.1"/>
<path class="st3" d="M463.8,264.7c0-24.2-19-43.3-43.3-43.3c-24.2,0-43.3,19-43.3,43.3s19,43.3,43.3,43.3
	C444.7,307.9,463.8,288.9,463.8,264.7"/>
<g>
	<path class="st4" d="M420.5,507.1h-8.7c-5.2,0-8.7-3.5-8.7-8.7c0-5.2,3.5-8.7,8.7-8.7h8.7c5.2,0,8.7,3.5,8.7,8.7
		C429.1,503.6,425.7,507.1,420.5,507.1"/>
	<path class="st4" d="M328.7,507.1h-16.4c-5.2,0-8.7-3.5-8.7-8.7c0-5.2,3.5-8.7,8.7-8.7h16.4c5.2,0,8.7,3.5,8.7,8.7
		C337.4,503.6,333.9,507.1,328.7,507.1 M378.9,507.1h-16.4c-5.2,0-8.7-3.5-8.7-8.7c0-5.2,3.5-8.7,8.7-8.7h16.4
		c5.2,0,8.7,3.5,8.7,8.7C387.6,503.6,383.3,507.1,378.9,507.1"/>
	<path class="st4" d="M150.4,333.9h-16.4c-5.2,0-8.7-3.5-8.7-8.7s3.5-8.7,8.7-8.7h16.4c5.2,0,8.7,3.5,8.7,8.7
		S154.7,333.9,150.4,333.9 M199.7,333.9h-16.4c-5.2,0-8.7-3.5-8.7-8.7s3.5-8.7,8.7-8.7h16.4c5.2,0,8.7,3.5,8.7,8.7
		S204.9,333.9,199.7,333.9 M241.3,355.6c-2.6,0-6.1-1.7-7.8-4.3c-2.6-3.5-5.2-6.9-8.7-10.4c-3.5-2.6-4.3-8.7-1.7-12.1
		c2.6-3.5,8.7-4.3,12.1-1.7c5.2,4.3,9.5,9.5,13,14.7c2.6,4.3,0.9,9.5-3.5,12.1C244.7,355.6,243,355.6,241.3,355.6 M238.7,402.3
		c-1.7,0-3.5-0.9-5.2-1.7c-3.5-2.6-4.3-8.7-1.7-12.1c2.6-3.5,4.3-7.8,5.2-12.1c0.9-4.3,6.1-7.8,10.4-6.1c4.3,0.9,7.8,6.1,6.1,10.4
		c-1.7,6.1-4.3,12.1-8.7,18.2C244.7,401.4,241.3,402.3,238.7,402.3 M112.3,420.5H95.8c-5.2,0-8.7-3.5-8.7-8.7c0-5.2,3.5-8.7,8.7-8.7
		h16.4c5.2,0,8.7,3.5,8.7,8.7C120.9,417,117.5,420.5,112.3,420.5 M161.6,420.5h-16.4c-5.2,0-8.7-3.5-8.7-8.7c0-5.2,3.5-8.7,8.7-8.7
		h16.4c5.2,0,8.7,3.5,8.7,8.7C170.3,417,166.8,420.5,161.6,420.5 M204.1,420.5h-8.7c-5.2,0-8.7-3.5-8.7-8.7c0-5.2,3.5-8.7,8.7-8.7
		h8.7c1.7,0,4.3,0,6.1-0.9c5.2-0.9,9.5,2.6,10.4,6.9c0.9,4.3-2.6,9.5-6.9,10.4C210.1,420.5,206.7,420.5,204.1,420.5 M46.5,422.2
		c-3.5,0-7.8-2.6-8.7-6.9c-0.9-4.3,1.7-9.5,6.1-10.4c4.3-0.9,8.7-1.7,13-1.7h6.1c5.2,0,8.7,3.5,8.7,8.7s-3.5,8.7-8.7,8.7h-6.1
		c-2.6,0-6.1,0-8.7,0.9C47.4,421.4,46.5,422.2,46.5,422.2 M14.5,456c-0.9,0-0.9,0-1.7,0c-4.3-0.9-7.8-5.2-6.9-9.5
		c0.9-6.9,3.5-13,6.9-18.2c2.6-4.3,7.8-5.2,12.1-2.6c4.3,2.6,5.2,7.8,2.6,12.1c-2.6,3.5-4.3,7.8-4.3,12.1
		C22.3,453.4,18.8,456,14.5,456 M32.6,499.3c-1.7,0-3.5-0.9-5.2-1.7c-5.2-3.5-10.4-7.8-13.9-13.9c-2.6-4.3-1.7-9.5,2.6-12.1
		s9.5-1.7,12.1,2.6s5.2,6.9,8.7,9.5c4.3,2.6,5.2,7.8,2.6,12.1C37.8,498.4,35.2,499.3,32.6,499.3 M80.3,507.1H63.8
		c-5.2,0-8.7-3.5-8.7-8.7c0-5.2,3.5-8.7,8.7-8.7h16.4c5.2,0,8.7,3.5,8.7,8.7C88.9,503.6,85.5,507.1,80.3,507.1 M130.5,507.1H114
		c-5.2,0-8.7-3.5-8.7-8.7c0-5.2,3.5-8.7,8.7-8.7h16.4c5.2,0,8.7,3.5,8.7,8.7C139.1,503.6,134.8,507.1,130.5,507.1 M179.8,507.1
		h-16.4c-5.2,0-8.7-3.5-8.7-8.7c0-5.2,3.5-8.7,8.7-8.7h16.4c5.2,0,8.7,3.5,8.7,8.7C188.5,503.6,185,507.1,179.8,507.1 M230,507.1
		h-17.3c-5.2,0-8.7-3.5-8.7-8.7c0-5.2,3.5-8.7,8.7-8.7H230c5.2,0,8.7,3.5,8.7,8.7C238.7,503.6,234.4,507.1,230,507.1 M279.4,507.1
		h-16.4c-5.2,0-8.7-3.5-8.7-8.7c0-5.2,3.5-8.7,8.7-8.7h16.4c5.2,0,8.7,3.5,8.7,8.7C288,503.6,284.6,507.1,279.4,507.1"/>
	<path class="st4" d="M100.2,333.9h-8.7c-5.2,0-8.7-3.5-8.7-8.7s3.5-8.7,8.7-8.7h8.7c5.2,0,8.7,3.5,8.7,8.7S105.4,333.9,100.2,333.9
		"/>
</g>
<g>
</g>
<g>
</g>
<g>
</g>
<g>
</g>
<g>
</g>
<g>
</g>
<g>
</g>
<g>
</g>
<g>
</g>
<g>
</g>
<g>
</g>
<g>
</g>
<g>
</g>
<g>
</g>
<g>
</g>
</svg>
